<?xml version="1.0" standalone="no"?>
<!DOCTYPE svg PUBLIC "-//W3C//DTD SVG 20010904//EN"
 "http://www.w3.org/TR/2001/REC-SVG-20010904/DTD/svg10.dtd">
<svg version="1.0" xmlns="http://www.w3.org/2000/svg"
 width="700.000000pt" height="700.000000pt" viewBox="0 0 700.000000 700.000000"
 preserveAspectRatio="xMidYMid meet">
<metadata>
Created by potrace 1.14, written by Peter Selinger 2001-2017
</metadata>
<g transform="translate(0.000000,700.000000) scale(0.100000,-0.100000)"
fill="#000000" stroke="none">
<path d="M3155 6988 c-33 -5 -107 -16 -165 -24 -362 -51 -720 -164 -1055 -331
-1023 -511 -1740 -1501 -1899 -2623 -9 -63 -21 -145 -26 -183 -13 -87 -13
-567 0 -654 5 -38 17 -120 26 -183 71 -503 253 -980 539 -1415 548 -833 1436
-1399 2415 -1539 63 -9 145 -21 183 -26 87 -13 567 -13 654 0 38 5 120 17 183
26 1121 159 2112 877 2623 1899 169 338 281 695 331 1055 9 63 21 145 26 183
14 92 13 561 -1 666 -66 504 -165 845 -361 1235 -130 259 -304 518 -488 726
-36 41 -79 90 -96 109 -95 111 -387 358 -569 483 -440 302 -996 517 -1500 578
-49 6 -118 15 -151 20 -75 12 -586 11 -669 -2z m-95 -3308 c238 -577 436
-1050 440 -1050 4 0 202 473 440 1050 l433 1050 179 0 178 0 0 -1245 0 -1245
-145 0 -145 0 0 967 c0 582 -4 963 -9 958 -6 -7 -725 -1728 -798 -1912 -4 -10
-40 -13 -133 -13 -93 0 -129 3 -133 13 -73 184 -792 1905 -798 1911 -5 6 -9
-375 -9 -957 l0 -967 -145 0 -145 0 0 1245 0 1245 178 0 179 0 433 -1050z"/>
</g>
</svg>
