<?xml version="1.0" encoding="UTF-8"?>
<svg width="697px" height="700px" viewBox="0 0 697 700" version="1.1" xmlns="http://www.w3.org/2000/svg" xmlns:xlink="http://www.w3.org/1999/xlink">
    <title>safari-pinned-tab</title>
    <g id="safari-pinned-tab" stroke="none" stroke-width="1" fill="none" fill-rule="evenodd">
        <g id="Group-Copy-2">
            <circle id="Oval" fill="#2066D3" cx="350" cy="350" r="350"></circle>
            <g id="favicon" transform="translate(180, 180)" fill="#FFFFFF" fill-rule="nonzero" stroke="#FFFFFF" stroke-width="0.1">
                <path d="M227.436816,0 C198.091315,0 168.731129,11.1693877 146.37877,33.5213788 C103.306151,76.5947022 101.743065,145.648434 141.67556,190.618197 L130.088602,202.180381 L139.816596,211.908534 L151.38006,200.322855 C196.347618,240.256004 265.399485,238.692158 308.472838,195.618834 C353.175354,150.91632 353.176088,78.2246266 308.472838,33.522113 C286.122681,11.1693877 256.784521,0 227.436816,0 L227.436816,0 Z M227.436816,13.6289584 C253.243531,13.6289584 279.039233,23.4966092 298.769072,43.2267713 C338.228016,82.6863613 338.227282,146.45532 298.769072,185.913442 C260.939292,223.743841 200.784317,225.298143 161.108787,190.593968 L161.26884,190.434647 C159.543498,188.929536 157.84165,187.373032 156.198537,185.730626 C154.578183,184.11098 153.050338,182.429662 151.563607,180.729254 L151.403554,180.890778 C116.698478,141.214599 118.253489,81.057171 156.083269,43.2267713 C175.813843,23.4966092 201.630102,13.6289584 227.436816,13.6289584 Z M227.436816,27.4407327 C205.183573,27.4407327 182.922987,35.9581892 165.904505,52.97695 C131.866072,87.0159399 131.866072,141.986978 165.904505,176.024499 C173.349173,183.470758 181.786463,189.296636 190.797155,193.485248 C172.508527,179.471569 160.717465,157.41179 160.717465,132.590683 C160.717465,121.340534 163.134413,110.646908 167.48668,101.020075 C164.428786,116.060166 167.809723,131.034179 178.110383,141.332805 C196.158931,159.383117 228.581416,156.250285 250.518959,134.312383 C272.456502,112.374481 275.588549,79.9521997 257.537798,61.9018877 C255.794101,60.157428 253.908706,58.6178102 251.917587,57.2668818 C285.0515,63.6162451 310.61887,91.2933903 313.772942,125.45646 C317.032738,99.7080588 308.765779,72.7952161 288.947837,52.9762158 C271.929355,35.957455 249.690795,27.4407327 227.437551,27.4407327 L227.436816,27.4407327 Z M112.262513,203.740557 L13.2844011,302.720289 L38.6594132,328.096451 L137.638259,229.116719 L112.261779,203.740557 L112.262513,203.740557 Z M11.747011,320.570899 L0,332.293873 L9.70596783,342 L21.4294848,330.252797 L11.747011,320.570164 L11.747011,320.570899 Z" id="Shape"></path>
            </g>
        </g>
    </g>
</svg>