<svg width="161" height="120" viewBox="0 0 161 120" fill="none" xmlns="http://www.w3.org/2000/svg">
<path opacity="0.18" d="M27.3232 21.8099C22.258 22.8834 16.993 24.0483 12.9267 27.2541C9.49298 29.9585 4.14267 34.9512 2.52155 39.0077C-4.34582 56.1431 3.41848 76.9939 18.4892 87.6575C25.5772 92.6731 34.4111 95.1008 40.7812 101.005C44.81 104.739 47.6319 109.682 51.9188 113.114C58.1827 118.125 66.6399 119.234 74.6436 119.771C80.204 120.148 85.981 120.31 91.1398 118.196C94.869 116.669 98.028 114.05 101.129 111.469L121.671 94.3207C124.971 91.5684 128.057 87.1853 132.354 87.2144C171.032 87.4911 173.64 41.9888 114.279 21.8349C109.047 20.0583 105.459 15.1197 100.544 12.588C90.3907 7.35607 78.7057 9.05151 68.465 12.6712C55.4628 17.2791 40.8165 18.9412 27.3232 21.8099Z" fill="#91BCFF"/>
<path d="M128.466 37.535V91.7391C128.466 92.4183 128.332 93.0907 128.072 93.7181C127.812 94.3454 127.43 94.9154 126.95 95.3954C126.469 95.8755 125.899 96.2562 125.271 96.5158C124.643 96.7755 123.97 96.909 123.291 96.9087H42.1956C41.516 96.9087 40.8431 96.7748 40.2153 96.5148C39.5875 96.2548 39.0171 95.8737 38.5367 95.3932C38.0563 94.9128 37.6752 94.3424 37.4154 93.7147C37.1555 93.087 37.0219 92.4143 37.0222 91.735V37.535C37.0216 36.8556 37.155 36.1828 37.4148 35.555C37.6746 34.9272 38.0556 34.3567 38.5361 33.8762C39.0165 33.3957 39.5871 33.0146 40.215 32.7546C40.8429 32.4947 41.5159 32.3611 42.1956 32.3613H123.291C123.971 32.3613 124.644 32.4951 125.272 32.7552C125.899 33.0152 126.47 33.3962 126.951 33.8767C127.431 34.3571 127.812 34.9274 128.073 35.5551C128.333 36.1828 128.466 36.8556 128.466 37.535Z" fill="#91BCFF"/>
<path d="M127.064 34.0149H38.2854L39.0054 33.4636C39.0387 33.4348 39.0734 33.4077 39.1095 33.3825L81.3417 1.02142L82.6757 0L125.643 32.9269L127.064 34.0149Z" fill="#91BCFF"/>
<path d="M128.466 37.535L127.386 38.3151L119.522 44.0089L81.3417 71.6539L44.622 43.3848L37.0222 37.535L37.12 36.5302C37.3051 35.5882 37.7506 34.7169 38.406 34.0152C38.59 33.8149 38.7905 33.6305 39.0054 33.4639C39.0386 33.4351 39.0734 33.408 39.1094 33.3828C40.0008 32.718 41.0835 32.3597 42.1956 32.3613H123.291C124.577 32.362 125.816 32.841 126.769 33.705C127.721 34.5691 128.317 35.7564 128.441 37.0358C128.458 37.2017 128.467 37.3683 128.466 37.535Z" fill="#91BCFF"/>
<path opacity="0.1" d="M128.466 37.5347L127.386 38.3169L119.522 44.0086L81.3417 71.6536L44.6221 43.3866L37.0222 37.5347L37.12 36.532C37.3052 35.5894 37.7507 34.7174 38.406 34.0149C38.5911 33.8158 38.7915 33.6314 39.0054 33.4636L39.1094 33.3846L81.3417 1.02142L82.6756 0L125.643 32.9269C126.417 33.3213 127.08 33.9048 127.569 34.6234C128.059 35.3419 128.359 36.1723 128.442 37.0375C128.458 37.2028 128.467 37.3687 128.466 37.5347Z" fill="#000405"/>
<path d="M119.522 33.5306V44.0111L105.431 54.2046L102.2 56.5511L81.3415 71.6541L61.7237 56.5511L58.6875 54.2129L44.6219 43.3954V33.5306C44.6219 32.7157 44.9457 31.9342 45.5221 31.3579C46.0986 30.7817 46.8804 30.458 47.6956 30.458H116.45C117.265 30.4586 118.047 30.7825 118.623 31.3587C119.199 31.9348 119.522 32.7161 119.522 33.5306Z" fill="white"/>
<path d="M109.196 42.7191H53.6329C53.3227 42.7191 53.0252 42.5959 52.8059 42.3767C52.5865 42.1574 52.4633 41.8601 52.4633 41.55C52.4633 41.3965 52.4936 41.2444 52.5523 41.1026C52.6111 40.9607 52.6973 40.8319 52.8059 40.7233C52.9145 40.6147 53.0434 40.5286 53.1853 40.4699C53.3272 40.4111 53.4793 40.3809 53.6329 40.3809H109.196C109.35 40.3809 109.502 40.4111 109.644 40.4699C109.786 40.5286 109.915 40.6147 110.023 40.7233C110.132 40.8319 110.218 40.9607 110.277 41.1026C110.335 41.2444 110.366 41.3965 110.366 41.55C110.366 41.8601 110.242 42.1574 110.023 42.3767C109.804 42.5959 109.506 42.7191 109.196 42.7191Z" fill="url(#paint0_linear_889_4291)"/>
<path d="M109.196 49.6351H53.6329C53.3227 49.6351 53.0252 49.512 52.8059 49.2927C52.5865 49.0734 52.4633 48.7761 52.4633 48.466C52.4633 48.1559 52.5865 47.8586 52.8059 47.6393C53.0252 47.42 53.3227 47.2969 53.6329 47.2969H109.196C109.506 47.2969 109.804 47.42 110.023 47.6393C110.242 47.8586 110.366 48.1559 110.366 48.466C110.366 48.7761 110.242 49.0734 110.023 49.2927C109.804 49.512 109.506 49.6351 109.196 49.6351Z" fill="url(#paint1_linear_889_4291)"/>
<path d="M105.432 54.2129L102.2 56.5511H61.7242L58.6859 54.2129H105.432Z" fill="url(#paint2_linear_889_4291)"/>
<path opacity="0.05" d="M81.3422 71.6543L47.4506 96.9132H115.933L81.3422 71.6543Z" fill="#000405"/>
<path d="M52.1079 14.5713C50.4015 10.9121 43.9919 11.5133 43.9919 11.5133C47.9459 9.18127 47.1884 3.25867 47.1405 2.90918C48.8698 8.07247 54.8403 6.93247 55.3751 6.82013C51.4108 7.79787 52.1079 14.5713 52.1079 14.5713ZM40.9953 22.0791C39.911 19.7533 35.8343 20.1361 35.8343 20.1361C38.4148 18.6029 37.83 14.6566 37.83 14.6566V14.6795C38.9371 17.9435 42.7246 17.2195 43.0617 17.1488C40.552 17.7729 40.9953 22.0791 40.9953 22.0791Z" fill="#91BCFF"/>
<path opacity="0.22" d="M44.9097 11.2137L43.9961 11.5133C47.95 9.18127 47.1925 3.25867 47.1447 2.90918C47.2071 3.19002 48.1269 7.09889 47.6254 8.38243C46.999 9.98634 44.9097 11.2137 44.9097 11.2137ZM38.3752 18.3658C37.8924 19.0335 35.9737 20.0633 35.8426 20.1319C38.4231 18.5988 37.8383 14.6524 37.8383 14.6524V14.6753C37.9403 14.9458 38.8456 17.7126 38.3752 18.3658Z" fill="white"/>
<path opacity="0.22" d="M37.1761 40.381L79.5603 72.9813L81.3417 71.6541L37.0222 37.5352L37.1761 40.381Z" fill="white"/>
<path opacity="0.22" d="M82.7443 72.7713L128.466 39.8735V37.6289L81.3417 71.7457L82.7443 72.7713Z" fill="white"/>
<path opacity="0.22" d="M128.442 37.1282L128.317 37.4777L127.386 38.4076C128.04 37.2801 126.194 34.6631 126.194 34.6631L125.457 34.1118L123.245 32.4476L81.3417 1.1142L82.6757 0.0927734L125.643 33.0176C126.417 33.4125 127.079 33.9961 127.569 34.7146C128.058 35.433 128.358 36.2631 128.442 37.1282Z" fill="white"/>
<defs>
<linearGradient id="paint0_linear_889_4291" x1="81.7558" y1="24.8494" x2="79.6513" y2="127.689" gradientUnits="userSpaceOnUse">
<stop stop-color="#68E1FD"/>
<stop offset="0.01" stop-color="#67DDF9"/>
<stop offset="0.12" stop-color="#5CB3CE"/>
<stop offset="0.24" stop-color="#538EA9"/>
<stop offset="0.37" stop-color="#4C718B"/>
<stop offset="0.5" stop-color="#465A73"/>
<stop offset="0.63" stop-color="#424A63"/>
<stop offset="0.79" stop-color="#404059"/>
<stop offset="0.99" stop-color="#3F3D56"/>
</linearGradient>
<linearGradient id="paint1_linear_889_4291" x1="81.8973" y1="24.8505" x2="79.7928" y2="127.692" gradientUnits="userSpaceOnUse">
<stop stop-color="#68E1FD"/>
<stop offset="0.01" stop-color="#67DDF9"/>
<stop offset="0.12" stop-color="#5CB3CE"/>
<stop offset="0.24" stop-color="#538EA9"/>
<stop offset="0.37" stop-color="#4C718B"/>
<stop offset="0.5" stop-color="#465A73"/>
<stop offset="0.63" stop-color="#424A63"/>
<stop offset="0.79" stop-color="#404059"/>
<stop offset="0.99" stop-color="#3F3D56"/>
</linearGradient>
<linearGradient id="paint2_linear_889_4291" x1="82.6593" y1="24.8662" x2="80.5547" y2="127.708" gradientUnits="userSpaceOnUse">
<stop stop-color="#68E1FD"/>
<stop offset="0.01" stop-color="#67DDF9"/>
<stop offset="0.12" stop-color="#5CB3CE"/>
<stop offset="0.24" stop-color="#538EA9"/>
<stop offset="0.37" stop-color="#4C718B"/>
<stop offset="0.5" stop-color="#465A73"/>
<stop offset="0.63" stop-color="#424A63"/>
<stop offset="0.79" stop-color="#404059"/>
<stop offset="0.99" stop-color="#3F3D56"/>
</linearGradient>
</defs>
</svg>
