<svg width="156" height="120" viewBox="0 0 156 120" fill="none" xmlns="http://www.w3.org/2000/svg">
    <path opacity="0.18" d="M27.3925 30.717C22.5407 31.693 17.4975 32.7523 13.6024 35.6672C10.3134 38.1263 5.1884 42.666 3.63556 46.3546C-2.94256 61.9355 4.4947 80.8948 18.9307 90.591C25.7201 95.1516 34.182 97.359 40.2837 102.727C44.1428 106.123 46.8458 110.617 50.9522 113.738C56.9522 118.295 65.0533 119.303 72.7198 119.791C78.0461 120.134 83.5797 120.281 88.5212 118.359C92.0934 116.971 95.1193 114.589 98.0894 112.242L117.766 96.6497C120.927 94.1471 123.884 90.1616 128 90.1881C165.049 90.4397 167.546 49.0652 110.686 30.7397C105.674 29.1243 102.238 24.6337 97.5293 22.3316C87.8036 17.5743 76.6108 19.1159 66.8015 22.4073C54.3469 26.5971 40.3176 28.1085 27.3925 30.717Z" fill="#91BCFF"/>
    <path d="M108 46.7792H45.9658V37.9656C45.9658 29.7844 49.2337 21.9382 55.0505 16.1532C60.8673 10.3682 68.7566 7.11816 76.9828 7.11816C85.209 7.11816 93.0983 10.3682 98.9151 16.1532C104.732 21.9382 108 29.7844 108 37.9656V46.7792ZM54.8278 37.9656H99.1377C99.1377 32.1219 96.8036 26.5175 92.6487 22.3853C88.4938 18.2531 82.8586 15.9317 76.9828 15.9317C71.1069 15.9317 65.4717 18.2531 61.3168 22.3853C57.162 26.5175 54.8278 32.1219 54.8278 37.9656Z" fill="#89B2F2"/>
    <path d="M108.554 91.5253H46.4281C41.7204 91.5253 37.2055 89.6324 33.8767 86.2631C30.5479 82.8938 28.6777 78.3241 28.6777 73.5592V55.5931C28.6777 50.8281 30.5479 46.2584 33.8767 42.8891C37.2055 39.5198 41.7204 37.627 46.4281 37.627H108.554C113.262 37.627 117.777 39.5198 121.106 42.8891C124.435 46.2584 126.305 50.8281 126.305 55.5931V73.5592C126.305 78.3241 124.435 82.8938 121.106 86.2631C117.777 89.6324 113.262 91.5253 108.554 91.5253ZM46.4281 46.61C44.0743 46.61 41.8168 47.5564 40.1524 49.2411C38.488 50.9257 37.5529 53.2106 37.5529 55.5931V73.5592C37.5529 75.9416 38.488 78.2265 40.1524 79.9111C41.8168 81.5958 44.0743 82.5422 46.4281 82.5422H108.554C110.908 82.5422 113.166 81.5958 114.83 79.9111C116.495 78.2265 117.43 75.9416 117.43 73.5592V55.5931C117.43 53.2106 116.495 50.9257 114.83 49.2411C113.166 47.5564 110.908 46.61 108.554 46.61H46.4281Z" fill="#89B2F2"/>
    <path d="M108.813 42.7109H46.1693C42.6091 42.7109 39.1948 44.0931 36.6773 46.5533C34.1599 49.0135 32.7456 52.3503 32.7456 55.8296V73.3211C32.7456 76.8004 34.1599 80.1372 36.6773 82.5974C39.1948 85.0576 42.6091 86.4398 46.1693 86.4398H108.813C112.374 86.4398 115.788 85.0576 118.305 82.5974C120.823 80.1372 122.237 76.8004 122.237 73.3211V55.8296C122.237 52.3503 120.823 49.0135 118.305 46.5533C115.788 44.0931 112.374 42.7109 108.813 42.7109ZM50.6439 68.9482C49.7589 68.9482 48.8938 68.6918 48.158 68.2113C47.4221 67.7308 46.8486 67.0478 46.5099 66.2488C46.1713 65.4497 46.0827 64.5705 46.2553 63.7222C46.428 62.874 46.8541 62.0948 47.4799 61.4833C48.1057 60.8717 48.903 60.4552 49.771 60.2865C50.6389 60.1178 51.5386 60.2044 52.3563 60.5353C53.1739 60.8663 53.8727 61.4268 54.3644 62.1459C54.8561 62.865 55.1185 63.7105 55.1185 64.5753C55.1185 65.7351 54.6471 66.8474 53.8079 67.6674C52.9688 68.4875 51.8306 68.9482 50.6439 68.9482ZM68.5422 68.9482C67.6572 68.9482 66.7921 68.6918 66.0563 68.2113C65.3204 67.7308 64.7469 67.0478 64.4082 66.2488C64.0696 65.4497 63.981 64.5705 64.1536 63.7222C64.3263 62.874 64.7524 62.0948 65.3782 61.4833C66.004 60.8717 66.8013 60.4552 67.6693 60.2865C68.5373 60.1178 69.4369 60.2044 70.2546 60.5353C71.0722 60.8663 71.771 61.4268 72.2627 62.1459C72.7544 62.865 73.0168 63.7105 73.0168 64.5753C73.0168 65.7351 72.5454 66.8474 71.7062 67.6674C70.8671 68.4875 69.729 68.9482 68.5422 68.9482ZM86.4405 68.9482C85.5555 68.9482 84.6904 68.6918 83.9546 68.2113C83.2187 67.7308 82.6452 67.0478 82.3066 66.2488C81.9679 65.4497 81.8793 64.5705 82.0519 63.7222C82.2246 62.874 82.6507 62.0948 83.2765 61.4833C83.9023 60.8717 84.6996 60.4552 85.5676 60.2865C86.4356 60.1178 87.3352 60.2044 88.1529 60.5353C88.9705 60.8663 89.6693 61.4268 90.161 62.1459C90.6527 62.865 90.9151 63.7105 90.9151 64.5753C90.9151 65.7351 90.4437 66.8474 89.6045 67.6674C88.7654 68.4875 87.6273 68.9482 86.4405 68.9482ZM104.339 68.9482C103.454 68.9482 102.589 68.6918 101.853 68.2113C101.117 67.7308 100.544 67.0478 100.205 66.2488C99.8662 65.4497 99.7776 64.5705 99.9502 63.7222C100.123 62.874 100.549 62.0948 101.175 61.4833C101.801 60.8717 102.598 60.4552 103.466 60.2865C104.334 60.1178 105.234 60.2044 106.051 60.5353C106.869 60.8663 107.568 61.4268 108.059 62.1459C108.551 62.865 108.813 63.7105 108.813 64.5753C108.813 65.7351 108.342 66.8474 107.503 67.6674C106.664 68.4875 105.526 68.9482 104.339 68.9482Z" fill="#90BCFF"/>
    <path d="M120.481 26.1943C118.745 26.1943 117.337 24.7872 117.337 23.051V18.86C117.337 17.1238 118.745 15.7167 120.481 15.7167C121.112 15.7104 126.767 14.6689 126.767 10.4778C126.767 8.38232 124.672 6.28679 121.528 6.28679C118.971 6.28679 117.337 8.38232 117.337 9.43008C117.337 11.1662 115.93 12.5734 114.194 12.5734C112.458 12.5734 111.051 11.1662 111.051 9.43008C111.051 4.31908 115.85 0.000188828 121.528 0.000188828C129.911 0.000188828 133.054 6.26793 133.054 11.5256C133.054 15.8686 130.668 19.1879 126.335 20.8727C125.392 21.2395 124.459 21.4878 123.624 21.6554V23.051C123.624 24.7872 122.217 26.1943 120.481 26.1943Z" fill="#939598"/>
    <path d="M123.624 31.4329C123.624 33.169 122.217 34.5762 120.481 34.5762C118.745 34.5762 117.337 33.169 117.337 31.4329C117.337 29.6967 118.745 28.2896 120.481 28.2896C122.217 28.2896 123.624 29.6967 123.624 31.4329Z" fill="#939598"/>
</svg>
