<svg width="172" height="121" viewBox="0 0 172 121" fill="none" xmlns="http://www.w3.org/2000/svg">
<g clip-path="url(#clip0_1131_1758)">
<path opacity="0.18" d="M29.2752 15.5607C23.8481 16.6861 18.207 17.9074 13.8502 21.2682C10.1712 24.1034 4.43863 29.3376 2.7017 33.5904C-4.6563 51.5547 3.6627 73.4141 19.8102 84.5935C27.4045 89.8517 36.8696 92.3969 43.6947 98.5863C48.0114 102.501 51.0348 107.683 55.628 111.282C62.3394 116.535 71.4009 117.698 79.9763 118.26C85.934 118.655 92.1237 118.825 97.6511 116.61C101.647 115.009 105.031 112.263 108.354 109.556L130.363 91.579C133.899 88.6937 137.206 84.0985 141.81 84.129C183.251 84.4191 186.045 36.7157 122.443 15.5869C116.838 13.7244 112.994 8.54687 107.727 5.89268C96.8484 0.407658 84.3286 2.18511 73.3563 5.97992C59.4252 10.8107 43.7326 12.5532 29.2752 15.5607Z" fill="#DADADA"/>
<path d="M115.334 7.85254H56.5683C55.7022 7.85254 55 8.55476 55 9.421V97.4251C55 98.2913 55.7022 98.9935 56.5683 98.9935H115.334C116.2 98.9935 116.902 98.2913 116.902 97.4251V9.421C116.902 8.55476 116.2 7.85254 115.334 7.85254Z" fill="#91BCFF"/>
<path d="M96.842 75.1369V88.3481H63.1616C62.7996 88.3481 62.4525 88.2043 62.1966 87.9484C61.9407 87.6924 61.7969 87.3453 61.7969 86.9833V13.066C61.7969 12.704 61.9407 12.3569 62.1966 12.1009C62.4525 11.845 62.7996 11.7012 63.1616 11.7012H108.742C109.104 11.7012 109.451 11.845 109.707 12.1009C109.963 12.3569 110.107 12.704 110.107 13.066V75.1369H96.842Z" fill="#FFFEFF"/>
<path d="M96.8418 88.3481V75.1367H110.107L96.8418 88.3481Z" fill="#DBE8EC"/>
<path d="M86.2471 52.0007H75.59C75.3842 52.0007 75.1821 51.9465 75.004 51.8437C74.8258 51.7408 74.6778 51.5928 74.575 51.4147C74.4721 51.2365 74.418 51.0344 74.418 50.8286C74.418 50.6229 74.4721 50.4208 74.575 50.2426L79.9036 41.0125L85.2322 31.7823C85.3351 31.6042 85.483 31.4562 85.6612 31.3533C85.8393 31.2504 86.0414 31.1963 86.2472 31.1963C86.4529 31.1963 86.655 31.2504 86.8332 31.3533C87.0113 31.4562 87.1593 31.6042 87.2621 31.7823L92.5907 41.0125L97.9194 50.2426C98.0222 50.4208 98.0764 50.6229 98.0764 50.8286C98.0764 51.0344 98.0222 51.2365 97.9194 51.4147C97.8165 51.5928 97.6685 51.7408 97.4904 51.8437C97.3122 51.9465 97.1101 52.0007 96.9044 52.0007H86.2471Z" fill="#DADADA"/>
<path d="M86.8347 35.25H85.6621V45.1635H86.8347V35.25Z" fill="#409CB5"/>
<path d="M87.6429 48.7291C87.7193 47.9581 87.1562 47.2712 86.3852 47.1948C85.6143 47.1185 84.9275 47.6816 84.8511 48.4526C84.7748 49.2236 85.3379 49.9105 86.1088 49.9869C86.8797 50.0632 87.5666 49.5001 87.6429 48.7291Z" fill="#409CB5"/>
<path d="M69.002 61.9131H102.901" stroke="#DADADA" stroke-width="3" stroke-miterlimit="10"/>
<path d="M69.002 68.0742H102.901" stroke="#DADADA" stroke-width="3" stroke-miterlimit="10"/>
<path d="M69.002 22.9561H102.901" stroke="#DADADA" stroke-width="3" stroke-miterlimit="10"/>
<path d="M101.332 1.875H70.5703C69.7041 1.875 69.002 2.57722 69.002 3.44346V12.9172C69.002 13.7834 69.7041 14.4857 70.5703 14.4857H101.332C102.199 14.4857 102.901 13.7834 102.901 12.9172V3.44346C102.901 2.57722 102.199 1.875 101.332 1.875Z" fill="#808080"/>
</g>
<defs>
<clipPath id="clip0_1131_1758">
<rect width="171.765" height="120" fill="white" transform="translate(0.117188 0.5)"/>
</clipPath>
</defs>
</svg>
